<mxfile host="Electron" modified="2024-06-12T21:34:49.037Z" agent="Mozilla/5.0 (Windows NT 10.0; Win64; x64) AppleWebKit/537.36 (KHTML, like Gecko) draw.io/24.5.1 Chrome/124.0.6367.207 Electron/30.0.6 Safari/537.36" etag="77e_ZL8xwOdvazJjiHDG" version="24.5.1" type="device">
  <diagram id="C5RBs43oDa-KdzZeNtuy" name="Page-1">
    <mxGraphModel dx="880" dy="532" grid="1" gridSize="10" guides="1" tooltips="1" connect="1" arrows="1" fold="1" page="1" pageScale="1" pageWidth="827" pageHeight="1169" math="0" shadow="0">
      <root>
        <mxCell id="WIyWlLk6GJQsqaUBKTNV-0" />
        <mxCell id="WIyWlLk6GJQsqaUBKTNV-1" parent="WIyWlLk6GJQsqaUBKTNV-0" />
        <mxCell id="kOK4uDgTzNglqFQM-Wq7-2" value="" style="edgeStyle=orthogonalEdgeStyle;rounded=0;orthogonalLoop=1;jettySize=auto;html=1;" edge="1" parent="WIyWlLk6GJQsqaUBKTNV-1" source="kOK4uDgTzNglqFQM-Wq7-0" target="kOK4uDgTzNglqFQM-Wq7-1">
          <mxGeometry relative="1" as="geometry" />
        </mxCell>
        <mxCell id="kOK4uDgTzNglqFQM-Wq7-0" value="Inicio" style="strokeWidth=2;html=1;shape=mxgraph.flowchart.start_2;whiteSpace=wrap;" vertex="1" parent="WIyWlLk6GJQsqaUBKTNV-1">
          <mxGeometry x="240" y="70" width="70" height="70" as="geometry" />
        </mxCell>
        <mxCell id="kOK4uDgTzNglqFQM-Wq7-4" value="" style="edgeStyle=orthogonalEdgeStyle;rounded=0;orthogonalLoop=1;jettySize=auto;html=1;" edge="1" parent="WIyWlLk6GJQsqaUBKTNV-1" source="kOK4uDgTzNglqFQM-Wq7-1" target="kOK4uDgTzNglqFQM-Wq7-3">
          <mxGeometry relative="1" as="geometry" />
        </mxCell>
        <mxCell id="kOK4uDgTzNglqFQM-Wq7-1" value="Mostrar mensaje: &quot;Por favor ingrese la edad del cliente: &quot;" style="shape=parallelogram;perimeter=parallelogramPerimeter;whiteSpace=wrap;html=1;fixedSize=1;strokeWidth=2;rounded=1;fillColor=#ffe6cc;strokeColor=#d79b00;" vertex="1" parent="WIyWlLk6GJQsqaUBKTNV-1">
          <mxGeometry x="200" y="168" width="150" height="90" as="geometry" />
        </mxCell>
        <mxCell id="kOK4uDgTzNglqFQM-Wq7-19" style="edgeStyle=orthogonalEdgeStyle;rounded=0;orthogonalLoop=1;jettySize=auto;html=1;exitX=1;exitY=0.5;exitDx=0;exitDy=0;" edge="1" parent="WIyWlLk6GJQsqaUBKTNV-1" source="kOK4uDgTzNglqFQM-Wq7-3" target="kOK4uDgTzNglqFQM-Wq7-5">
          <mxGeometry relative="1" as="geometry" />
        </mxCell>
        <mxCell id="kOK4uDgTzNglqFQM-Wq7-22" value="SI" style="edgeLabel;html=1;align=center;verticalAlign=middle;resizable=0;points=[];" vertex="1" connectable="0" parent="kOK4uDgTzNglqFQM-Wq7-19">
          <mxGeometry x="-0.04" relative="1" as="geometry">
            <mxPoint as="offset" />
          </mxGeometry>
        </mxCell>
        <mxCell id="kOK4uDgTzNglqFQM-Wq7-21" style="edgeStyle=orthogonalEdgeStyle;rounded=0;orthogonalLoop=1;jettySize=auto;html=1;exitX=0.5;exitY=1;exitDx=0;exitDy=0;entryX=0.5;entryY=0;entryDx=0;entryDy=0;" edge="1" parent="WIyWlLk6GJQsqaUBKTNV-1" source="kOK4uDgTzNglqFQM-Wq7-3" target="kOK4uDgTzNglqFQM-Wq7-20">
          <mxGeometry relative="1" as="geometry" />
        </mxCell>
        <mxCell id="kOK4uDgTzNglqFQM-Wq7-23" value="NO" style="edgeLabel;html=1;align=center;verticalAlign=middle;resizable=0;points=[];" vertex="1" connectable="0" parent="kOK4uDgTzNglqFQM-Wq7-21">
          <mxGeometry x="-0.2121" y="3" relative="1" as="geometry">
            <mxPoint as="offset" />
          </mxGeometry>
        </mxCell>
        <mxCell id="kOK4uDgTzNglqFQM-Wq7-3" value="Si edad es &amp;gt;= 18" style="rhombus;whiteSpace=wrap;html=1;fillColor=#d5e8d4;strokeColor=#82b366;strokeWidth=2;rounded=1;" vertex="1" parent="WIyWlLk6GJQsqaUBKTNV-1">
          <mxGeometry x="235" y="290" width="80" height="80" as="geometry" />
        </mxCell>
        <mxCell id="kOK4uDgTzNglqFQM-Wq7-25" style="edgeStyle=orthogonalEdgeStyle;rounded=0;orthogonalLoop=1;jettySize=auto;html=1;exitX=0.5;exitY=1;exitDx=0;exitDy=0;entryX=0.5;entryY=0;entryDx=0;entryDy=0;" edge="1" parent="WIyWlLk6GJQsqaUBKTNV-1" source="kOK4uDgTzNglqFQM-Wq7-5" target="kOK4uDgTzNglqFQM-Wq7-24">
          <mxGeometry relative="1" as="geometry">
            <Array as="points">
              <mxPoint x="450" y="490" />
              <mxPoint x="275" y="490" />
            </Array>
          </mxGeometry>
        </mxCell>
        <mxCell id="kOK4uDgTzNglqFQM-Wq7-5" value="Asignar verdadero a una variable permitido" style="whiteSpace=wrap;html=1;fillColor=#e1d5e7;strokeColor=#9673a6;strokeWidth=2;rounded=1;" vertex="1" parent="WIyWlLk6GJQsqaUBKTNV-1">
          <mxGeometry x="390" y="300" width="120" height="60" as="geometry" />
        </mxCell>
        <mxCell id="kOK4uDgTzNglqFQM-Wq7-26" style="edgeStyle=orthogonalEdgeStyle;rounded=0;orthogonalLoop=1;jettySize=auto;html=1;exitX=0.5;exitY=1;exitDx=0;exitDy=0;entryX=0.5;entryY=0;entryDx=0;entryDy=0;" edge="1" parent="WIyWlLk6GJQsqaUBKTNV-1" source="kOK4uDgTzNglqFQM-Wq7-20" target="kOK4uDgTzNglqFQM-Wq7-24">
          <mxGeometry relative="1" as="geometry" />
        </mxCell>
        <mxCell id="kOK4uDgTzNglqFQM-Wq7-20" value="Asignar falso a una variable permitido" style="whiteSpace=wrap;html=1;fillColor=#e1d5e7;strokeColor=#9673a6;strokeWidth=2;rounded=1;" vertex="1" parent="WIyWlLk6GJQsqaUBKTNV-1">
          <mxGeometry x="215" y="403" width="120" height="67" as="geometry" />
        </mxCell>
        <mxCell id="kOK4uDgTzNglqFQM-Wq7-29" style="edgeStyle=orthogonalEdgeStyle;rounded=0;orthogonalLoop=1;jettySize=auto;html=1;exitX=1;exitY=0.5;exitDx=0;exitDy=0;" edge="1" parent="WIyWlLk6GJQsqaUBKTNV-1" source="kOK4uDgTzNglqFQM-Wq7-24" target="kOK4uDgTzNglqFQM-Wq7-27">
          <mxGeometry relative="1" as="geometry" />
        </mxCell>
        <mxCell id="kOK4uDgTzNglqFQM-Wq7-31" value="SI" style="edgeLabel;html=1;align=center;verticalAlign=middle;resizable=0;points=[];" vertex="1" connectable="0" parent="kOK4uDgTzNglqFQM-Wq7-29">
          <mxGeometry x="-0.1077" y="1" relative="1" as="geometry">
            <mxPoint as="offset" />
          </mxGeometry>
        </mxCell>
        <mxCell id="kOK4uDgTzNglqFQM-Wq7-30" style="edgeStyle=orthogonalEdgeStyle;rounded=0;orthogonalLoop=1;jettySize=auto;html=1;exitX=0.5;exitY=1;exitDx=0;exitDy=0;entryX=0.5;entryY=0;entryDx=0;entryDy=0;" edge="1" parent="WIyWlLk6GJQsqaUBKTNV-1" source="kOK4uDgTzNglqFQM-Wq7-24" target="kOK4uDgTzNglqFQM-Wq7-28">
          <mxGeometry relative="1" as="geometry" />
        </mxCell>
        <mxCell id="kOK4uDgTzNglqFQM-Wq7-32" value="NO" style="edgeLabel;html=1;align=center;verticalAlign=middle;resizable=0;points=[];" vertex="1" connectable="0" parent="kOK4uDgTzNglqFQM-Wq7-30">
          <mxGeometry x="-0.24" y="-2" relative="1" as="geometry">
            <mxPoint as="offset" />
          </mxGeometry>
        </mxCell>
        <mxCell id="kOK4uDgTzNglqFQM-Wq7-24" value="EL ingreso es permitido?" style="rhombus;whiteSpace=wrap;html=1;fillColor=#d5e8d4;strokeColor=#82b366;strokeWidth=2;rounded=1;" vertex="1" parent="WIyWlLk6GJQsqaUBKTNV-1">
          <mxGeometry x="235" y="510" width="80" height="80" as="geometry" />
        </mxCell>
        <mxCell id="kOK4uDgTzNglqFQM-Wq7-35" style="edgeStyle=orthogonalEdgeStyle;rounded=0;orthogonalLoop=1;jettySize=auto;html=1;exitX=0.5;exitY=1;exitDx=0;exitDy=0;entryX=0.5;entryY=0;entryDx=0;entryDy=0;" edge="1" parent="WIyWlLk6GJQsqaUBKTNV-1" source="kOK4uDgTzNglqFQM-Wq7-27" target="kOK4uDgTzNglqFQM-Wq7-33">
          <mxGeometry relative="1" as="geometry">
            <Array as="points">
              <mxPoint x="450" y="740" />
              <mxPoint x="275" y="740" />
            </Array>
          </mxGeometry>
        </mxCell>
        <mxCell id="kOK4uDgTzNglqFQM-Wq7-27" value="Mostrar mensaje &quot;Puedes ingresar a la discoteca&quot;" style="shape=parallelogram;perimeter=parallelogramPerimeter;whiteSpace=wrap;html=1;fixedSize=1;rounded=1;fillColor=#ffe6cc;strokeColor=#d79b00;" vertex="1" parent="WIyWlLk6GJQsqaUBKTNV-1">
          <mxGeometry x="370" y="510" width="160" height="80" as="geometry" />
        </mxCell>
        <mxCell id="kOK4uDgTzNglqFQM-Wq7-34" value="" style="edgeStyle=orthogonalEdgeStyle;rounded=0;orthogonalLoop=1;jettySize=auto;html=1;" edge="1" parent="WIyWlLk6GJQsqaUBKTNV-1" source="kOK4uDgTzNglqFQM-Wq7-28" target="kOK4uDgTzNglqFQM-Wq7-33">
          <mxGeometry relative="1" as="geometry" />
        </mxCell>
        <mxCell id="kOK4uDgTzNglqFQM-Wq7-28" value="Mostrar mensaje &quot;Lo sentimos mucho, no se puede ingresar siendo menor de edad&quot;" style="shape=parallelogram;perimeter=parallelogramPerimeter;whiteSpace=wrap;html=1;fixedSize=1;rounded=1;fillColor=#ffe6cc;strokeColor=#d79b00;" vertex="1" parent="WIyWlLk6GJQsqaUBKTNV-1">
          <mxGeometry x="195" y="640" width="160" height="80" as="geometry" />
        </mxCell>
        <mxCell id="kOK4uDgTzNglqFQM-Wq7-33" value="Fin" style="ellipse;whiteSpace=wrap;html=1;rounded=1;" vertex="1" parent="WIyWlLk6GJQsqaUBKTNV-1">
          <mxGeometry x="235" y="760" width="80" height="80" as="geometry" />
        </mxCell>
      </root>
    </mxGraphModel>
  </diagram>
</mxfile>
